# xmcd
#
# Track frame offsets: 
#        150
#        18850
#        49575
#
# Disc length: 962 seconds
#
# Revision: 2
# Processed by: cddbd v1.4PL0 Copyright (c) Steve Scherf et al.
# Submitted via: ExactAudioCopy v0.90b4
#
DISCID=1703c003
DTITLE=C and C Music Factory - Gonna Make You Sweat (Everybody Dance Now
DTITLE=)
DYEAR=1990
DGENRE=Dance
TTITLE0=Gonna Make You Sweat (Everybody Dance Now) (Radio Mix)
TTITLE1=Gonna Make You Sweat (Everybody Dance Now) (The Slammin' Vocal
TTITLE1=Club Mix)
TTITLE2=Gonna Make You Sweat (Everybody Dance Now) (Clivilles and Cole D
TTITLE2=J's Choice Mix)
EXTD=
EXTT0=
EXTT1=
EXTT2=
PLAYORDER=
